<svg version="1.1" xmlns="http://www.w3.org/2000/svg">
    <symbol id="terminal.navigation" width="24" height="24" viewBox="-12 -12 24 24">
        <circle cx="0" cy="0" r="9" fill="none" stroke="#dedede" stroke-width="2"/>
        <line x1="0" y1="-12" x2="0" y2="12" stroke="#dedede"/>
        <line x1="-12" y1="0" x2="12" y2="0" stroke="#dedede"/>
        <line x1="-10" y1="-10" x2="10" y2="10" stroke="#dedede"/>
        <line x1="10" y1="-10" x2="-10" y2="10" stroke="#dedede"/>
    </symbol>
    <symbol id="terminal.tactical" width="24" height="24" viewBox="-12 -12 24 24">
        <circle cx="0" cy="0" r="9" fill="none" stroke="#dedede" stroke-width="2"/>
        <circle cx="0" cy="0" r="4" fill="none" stroke="#dedede" stroke-width="2"/>
        <line x1="0" y1="-12" x2="0" y2="-4" stroke="#dedede"/>
        <line x1="0" y1="4" x2="0" y2="12" stroke="#dedede"/>
        <line x1="-12" y1="0" x2="-4" y2="0" stroke="#dedede"/>
        <line x1="4" y1="0" x2="12" y2="0" stroke="#dedede"/>
    </symbol>
    <symbol id="terminal.intelligence" width="24" height="24" viewBox="-12 -12 24 24">
        <circle cx="0" cy="0" r="9" fill="none" stroke="#dedede" stroke-width="2"/>
        <circle cx="0" cy="0" r="4" fill="none" stroke="#dedede" stroke-width="2"/>
        <line x1="-6" y1="-6" x2="6" y2="6" stroke="#dedede"/>
        <line x1="-6" y1="6" x2="6" y2="-6" stroke="#dedede"/>
        <line x1="0" y1="0" x2="8" y2="-8" stroke="black" stroke-width="4" stroke-linecap="round"/>
        <line x1="0" y1="0" x2="8" y2="-8" stroke="#dedede" stroke-width="1" stroke-linecap="round"/>
    </symbol>
    <symbol id="terminal.cartography" width="24" height="24" viewBox="-12 -12 24 24">
        <circle cx="0" cy="0" r="9" fill="none" stroke="#dedede" stroke-width="2"/>
        <circle cx="0" cy="0" r="4" fill="none" stroke="#dedede" stroke-width="2"/>
        <circle cx="0" cy="-9" r="2" fill="black" stroke="#dedede" stroke-width="1"/>
        <circle cx="-4" cy="0" r="2" fill="black" stroke="#dedede" stroke-width="1"/>
        <circle cx="6.364" cy="6.364" r="2" fill="black" stroke="#dedede" stroke-width="1"/>
    </symbol>
</svg>
